# xmcd
#
# Track frame offsets:
#	150
#	17617
#	32335
#	51563
#	68355
#	84132
#	102113
#	117437
#	131871
#	152022
#	171160
#	187642
#	203317
#	222346
#	240137
#	253262
#	270696
#	287878
#	304228
#	318404
#
# Disc length: 4569 seconds
#
# Revision: 1
# Processed by: cddbd v1.5.2PL0 Copyright (c) Steve Scherf et al.
# Submitted via: EasyCDDAExtractor 15.2.1.1
#
DISCID=0811d714
DTITLE=Various Artist - R&B THE COLLECTION 2013 DISC ONE
DYEAR=2013
DGENRE=R&B
TTITLE0=ROBIN THICKE FEAT.PHARREL - BLURRED LINES
TTITLE1=EMELI SANDE - NEXT TO ME
TTITLE2=LIL WAYNE FEAT.DRAKE and FUTURE - LOVE ME
TTITLE3=IGGY AZALEA - WORK
TTITLE4=NELLY - HEY PORSCHE
TTITLE5=CHRISETTE MICHELE - A COUPLE OF FOREVERS
TTITLE6=DIZZEE RASCAL - BASSLINE JUNKIE
TTITLE7=BIG BOI FEAT.KELLY ROWLAND - MAMA TOLD ME
TTITLE8=KID CUDI FEAT.TOO $HORT - GIRLS
TTITLE9=NE-YO FEAT.BENI - LET ME LOVE YOU
TTITLE10=NICKI MINAJ FEAT.LIL WAYNE - HIGH SCHOOL
TTITLE11=2 CHAINZ - I'M DIFFERENT
TTITLE12=THE-DREAM FEAT.FABULOUS - SLOW IT DOWN
TTITLE13=INDIA.ARIE - COCOA BUTTER
TTITLE14=DRAKE - STARTED FROM THE BOTTOM
TTITLE15=NELLY FURTADO - BIG HOOPS(BIGGER THE BETTER)
TTITLE16=JUSTIN BIEBER FEAT.NICKI MINAJ - BEAUTY AND BEAT
TTITLE17=TYLER JAMES FEAT.KANO - WORRY ABOUT YOU
TTITLE18=ANGEL HAZE - WERKIN' GIRL
TTITLE19=THE WEEKND - WICKED GAMES
EXTD=
EXTT0=
EXTT1=
EXTT2=
EXTT3=
EXTT4=
EXTT5=
EXTT6=
EXTT7=
EXTT8=
EXTT9=
EXTT10=
EXTT11=
EXTT12=
EXTT13=
EXTT14=
EXTT15=
EXTT16=
EXTT17=
EXTT18=
EXTT19=
PLAYORDER=
